<svg width="150" height="150" viewBox="0 0 150 150" fill="none" xmlns="http://www.w3.org/2000/svg">
<rect width="150" height="150" rx="50" fill="#502D3A"/>
<path d="M126.963 73.6703C126.963 101.588 103.806 104 75.2398 104C46.6741 104 23.517 101.588 23.517 73.6703C23.517 45.7526 46.6741 23.1209 75.2398 23.1209C103.806 23.1209 126.963 45.7526 126.963 73.6703Z" fill="#F2BAC7"/>
<path d="M95.9289 82.5165C95.9289 92.9856 86.6661 87.8242 75.2398 87.8242C63.8135 87.8242 54.5507 92.9856 54.5507 82.5165C54.5507 72.0474 63.8135 63.5604 75.2398 63.5604C86.6661 63.5604 95.9289 72.0474 95.9289 82.5165Z" fill="#F37D99"/>
<rect width="6.20674" height="12.1319" rx="3.10337" transform="matrix(1 0 0 -1 82.481 84.7912)" fill="#512323"/>
<rect width="6.20674" height="12.1319" rx="3.10337" transform="matrix(1 0 0 -1 61.7919 84.7912)" fill="#512323"/>
<ellipse cx="50.2478" cy="58.4549" rx="5.17228" ry="5.05494" fill="#202020"/>
<ellipse cx="52.0266" cy="56.4" rx="2.04445" ry="2" fill="white"/>
<ellipse cx="100.541" cy="58.4549" rx="5.17228" ry="5.05494" fill="#202020"/>
<ellipse cx="102.32" cy="56.4" rx="2.04445" ry="2" fill="white"/>
<path d="M51.2114 29.4954C56.9195 39.1578 50.3627 41.6379 42.9411 45.8255C35.5195 50.0132 30.0435 54.3227 24.3354 44.6602C18.6273 34.9978 27.438 19.5824 27.438 19.5824C27.438 19.5824 45.5033 19.833 51.2114 29.4954Z" fill="#F2BAC7"/>
<path d="M46.6694 34.1779C50.4748 40.6195 46.1036 35.5329 41.1559 38.3247C36.2082 41.1165 32.5575 50.7294 28.7521 44.2878C24.9467 37.8461 30.8205 27.5692 30.8205 27.5692C30.8205 27.5692 42.864 27.7363 46.6694 34.1779Z" fill="#F37D99"/>
<path d="M99.4552 29.4954C93.7471 39.1578 100.304 41.6379 107.725 45.8255C115.147 50.0132 120.623 54.3227 126.331 44.6602C132.039 34.9978 123.229 19.5824 123.229 19.5824C123.229 19.5824 105.163 19.833 99.4552 29.4954Z" fill="#F2BAC7"/>
<path d="M103.997 34.1779C100.192 40.6195 104.563 35.5329 109.511 38.3247C114.458 41.1165 118.109 50.7294 121.915 44.2878C125.72 37.8461 119.846 27.5692 119.846 27.5692C119.846 27.5692 107.803 27.7363 103.997 34.1779Z" fill="#F37D99"/>
<ellipse cx="39.0338" cy="76.0967" rx="8.27565" ry="4.04396" fill="#F37D99" fill-opacity="0.5"/>
<ellipse cx="111.446" cy="76.5011" rx="8.27565" ry="4.04396" fill="#F37D99" fill-opacity="0.5"/>
<path d="M69.5311 115.576C69.5311 116.552 69.3071 117.448 68.8591 118.264C68.4111 119.064 67.7231 119.712 66.7951 120.208C65.8671 120.704 64.7151 120.952 63.3391 120.952H60.7951V127H56.6911V110.152H63.3391C64.6831 110.152 65.8191 110.384 66.7471 110.848C67.6751 111.312 68.3711 111.952 68.8351 112.768C69.2991 113.584 69.5311 114.52 69.5311 115.576ZM63.0271 117.688C63.8111 117.688 64.3951 117.504 64.7791 117.136C65.1631 116.768 65.3551 116.248 65.3551 115.576C65.3551 114.904 65.1631 114.384 64.7791 114.016C64.3951 113.648 63.8111 113.464 63.0271 113.464H60.7951V117.688H63.0271ZM75.7717 123.832H81.1477V127H71.6677V110.152H75.7717V123.832ZM95.2252 110.152V113.44H90.7612V127H86.6572V113.44H82.1932V110.152H95.2252Z" fill="#F2BAC7"/>
</svg>
